<svg width="15" height="14" viewBox="0 0 15 14" fill="none" xmlns="http://www.w3.org/2000/svg">
<g clip-path="url(#clip0_122_23)">
<path d="M10.5354 2.8L12.7278 4.99236C12.8201 5.08472 12.8201 5.23541 12.7278 5.32777L7.41944 10.6361L5.16389 10.8865C4.8625 10.9205 4.60729 10.6653 4.64132 10.3639L4.89167 8.10833L10.2 2.8C10.2924 2.70764 10.4431 2.70764 10.5354 2.8ZM14.4729 2.2434L13.2868 1.05729C12.9174 0.687844 12.317 0.687844 11.9451 1.05729L11.0847 1.9177C10.9924 2.01007 10.9924 2.16076 11.0847 2.25312L13.2771 4.44548C13.3694 4.53784 13.5201 4.53784 13.6125 4.44548L14.4729 3.58507C14.8424 3.21319 14.8424 2.61284 14.4729 2.2434ZM10.0833 9.19236V11.6667H2.30556V3.88889H7.89097C7.96875 3.88889 8.04167 3.85729 8.09757 3.80382L9.06979 2.83159C9.25451 2.64687 9.12326 2.33333 8.86319 2.33333H1.91667C1.27257 2.33333 0.75 2.8559 0.75 3.5V12.0556C0.75 12.6996 1.27257 13.2222 1.91667 13.2222H10.4722C11.1163 13.2222 11.6389 12.6996 11.6389 12.0556V8.22014C11.6389 7.96007 11.3253 7.83125 11.1406 8.01354L10.1684 8.98576C10.1149 9.04166 10.0833 9.11458 10.0833 9.19236Z" fill="#2563EB"/>
</g>
<defs>
<clipPath id="clip0_122_23">
<rect width="14" height="14" fill="white" transform="translate(0.75)"/>
</clipPath>
</defs>
</svg>
