<svg width="15" height="17" viewBox="0 0 15 17" fill="none" xmlns="http://www.w3.org/2000/svg">
<g clip-path="url(#clip0_122_19)">
<path d="M2.5 15.6875C2.5 16.0356 2.63828 16.3694 2.88442 16.6156C3.13056 16.8617 3.4644 17 3.8125 17H11.6875C12.0356 17 12.3694 16.8617 12.6156 16.6156C12.8617 16.3694 13 16.0356 13 15.6875V6.5H2.5V15.6875ZM9.9375 8.6875C9.9375 8.57147 9.98359 8.46019 10.0656 8.37815C10.1477 8.2961 10.259 8.25 10.375 8.25C10.491 8.25 10.6023 8.2961 10.6844 8.37815C10.7664 8.46019 10.8125 8.57147 10.8125 8.6875V14.8125C10.8125 14.9285 10.7664 15.0398 10.6844 15.1219C10.6023 15.2039 10.491 15.25 10.375 15.25C10.259 15.25 10.1477 15.2039 10.0656 15.1219C9.98359 15.0398 9.9375 14.9285 9.9375 14.8125V8.6875ZM7.3125 8.6875C7.3125 8.57147 7.35859 8.46019 7.44064 8.37815C7.52269 8.2961 7.63397 8.25 7.75 8.25C7.86603 8.25 7.97731 8.2961 8.05936 8.37815C8.14141 8.46019 8.1875 8.57147 8.1875 8.6875V14.8125C8.1875 14.9285 8.14141 15.0398 8.05936 15.1219C7.97731 15.2039 7.86603 15.25 7.75 15.25C7.63397 15.25 7.52269 15.2039 7.44064 15.1219C7.35859 15.0398 7.3125 14.9285 7.3125 14.8125V8.6875ZM4.6875 8.6875C4.6875 8.57147 4.73359 8.46019 4.81564 8.37815C4.89769 8.2961 5.00897 8.25 5.125 8.25C5.24103 8.25 5.35231 8.2961 5.43436 8.37815C5.51641 8.46019 5.5625 8.57147 5.5625 8.6875V14.8125C5.5625 14.9285 5.51641 15.0398 5.43436 15.1219C5.35231 15.2039 5.24103 15.25 5.125 15.25C5.00897 15.25 4.89769 15.2039 4.81564 15.1219C4.73359 15.0398 4.6875 14.9285 4.6875 14.8125V8.6875ZM13.4375 3.875H10.1562L9.89922 3.36368C9.84477 3.25436 9.7609 3.16241 9.65704 3.09816C9.55318 3.03391 9.43345 2.99992 9.31133 3H6.18594C6.06409 2.99954 5.94457 3.0334 5.84108 3.09772C5.73759 3.16204 5.65431 3.25421 5.60078 3.36368L5.34375 3.875H2.0625C1.94647 3.875 1.83519 3.9211 1.75314 4.00315C1.67109 4.08519 1.625 4.19647 1.625 4.3125V5.1875C1.625 5.30354 1.67109 5.41482 1.75314 5.49686C1.83519 5.57891 1.94647 5.625 2.0625 5.625H13.4375C13.5535 5.625 13.6648 5.57891 13.7469 5.49686C13.8289 5.41482 13.875 5.30354 13.875 5.1875V4.3125C13.875 4.19647 13.8289 4.08519 13.7469 4.00315C13.6648 3.9211 13.5535 3.875 13.4375 3.875Z" fill="#DC2626"/>
</g>
<defs>
<clipPath id="clip0_122_19">
<rect width="14" height="14" fill="white" transform="translate(0.75 3)"/>
</clipPath>
</defs>
</svg>
